<svg id="Layer_1" data-name="Layer 1" xmlns="http://www.w3.org/2000/svg" xmlns:xlink="http://www.w3.org/1999/xlink" viewBox="0 0 599.73 600.16"><defs><style>.cls-1{fill:none;}.cls-2{clip-path:url(#clip-path);}.cls-3{fill:#1c1c1c;}</style><clipPath id="clip-path" transform="translate(-200.02 -200.09)"><rect class="cls-1" x="199.75" y="199.82" width="600" height="600"/></clipPath></defs><g class="cls-2"><path class="cls-3" d="M323.83,744.08a9.34,9.34,0,0,1-6.63-2.75l-58.69-58.69a9.37,9.37,0,0,1-.87-12.25l51.15-68.2a215.43,215.43,0,0,1-16.27-39.39l-84.45-12.06a9.38,9.38,0,0,1-8-9.29v-83a9.37,9.37,0,0,1,8-9.28l84.45-12.07a215.43,215.43,0,0,1,16.27-39.39l-51.15-68.2a9.38,9.38,0,0,1,.87-12.26l58.69-58.68a9.37,9.37,0,0,1,12.25-.87l68.2,51.15a216.27,216.27,0,0,1,39.4-16.28l12.06-84.44a9.38,9.38,0,0,1,9.28-8h83a9.37,9.37,0,0,1,9.28,8l12.06,84.44a215.88,215.88,0,0,1,39.39,16.28l68.21-51.15a9.37,9.37,0,0,1,12.25.87l58.69,58.68a9.39,9.39,0,0,1,.87,12.26L691,397.72a215.23,215.23,0,0,1,16.26,39.39l84.45,12.07a9.37,9.37,0,0,1,8,9.28v83a9.38,9.38,0,0,1-8,9.29L707.25,562.8A214.94,214.94,0,0,1,691,602.19l51.15,68.2a9.38,9.38,0,0,1-.87,12.25l-58.69,58.69a9.37,9.37,0,0,1-12.25.87l-73.06-54.79a9.37,9.37,0,0,1,11.24-15l66.56,49.9,47.19-47.18-49.91-66.56a9.36,9.36,0,0,1-.64-10.29,197,197,0,0,0,19.17-46.36,9.36,9.36,0,0,1,7.71-6.83L781,533.32V466.59l-82.41-11.77a9.36,9.36,0,0,1-7.71-6.83,197.17,197.17,0,0,0-19.17-46.38,9.36,9.36,0,0,1,.64-10.29l49.91-66.55-47.19-47.19L608.51,327.5a9.39,9.39,0,0,1-10.29.63A196.33,196.33,0,0,0,551.85,309a9.39,9.39,0,0,1-6.83-7.72l-11.76-82.41H466.52l-11.77,82.41a9.38,9.38,0,0,1-6.83,7.72,196.5,196.5,0,0,0-46.37,19.16,9.36,9.36,0,0,1-10.29-.63l-66.55-49.92-47.2,47.19,49.92,66.55a9.36,9.36,0,0,1,.63,10.29A196.75,196.75,0,0,0,308.9,448a9.38,9.38,0,0,1-7.72,6.83l-82.41,11.77v66.73l82.41,11.78a9.38,9.38,0,0,1,7.72,6.83,197,197,0,0,0,19.16,46.36,9.36,9.36,0,0,1-.63,10.29l-49.92,66.56,47.2,47.18,66.55-49.91a9.38,9.38,0,0,1,11.25,15L329.45,742.2A9.31,9.31,0,0,1,323.83,744.08Z" transform="translate(-200.02 -200.09)"/><path class="cls-3" d="M434.12,677.94a9.39,9.39,0,0,1-9.19-7.55c-5.42-27.17-13.46-37-25.63-52-3.9-4.78-8.09-9.93-12.59-16.11-23.6-32.38-39.13-62.27-38.21-102.94,1.79-79.85,68.52-141.44,151.39-140.17a9.39,9.39,0,0,1,9.24,9.52c-.08,5.18-4.06,9.63-9.52,9.23-72.3-1.27-130.82,52.42-132.37,121.84-.8,35.53,12.65,61.34,34.62,91.48,4.28,5.86,8.27,10.76,12,15.31C426.77,622.45,437,635,443.32,666.73a9.38,9.38,0,0,1-7.36,11A9.72,9.72,0,0,1,434.12,677.94Z" transform="translate(-200.02 -200.09)"/><path class="cls-3" d="M434.13,678.27a9.38,9.38,0,0,1,0-18.75l131.25-.33h0a9.38,9.38,0,0,1,0,18.75l-131.25.33Z" transform="translate(-200.02 -200.09)"/><path class="cls-3" d="M565.38,715.44H434.13a9.38,9.38,0,1,1,0-18.75H565.38a9.38,9.38,0,0,1,0,18.75Z" transform="translate(-200.02 -200.09)"/><path class="cls-3" d="M565.38,752.94H434.13a9.38,9.38,0,1,1,0-18.75H565.38a9.38,9.38,0,0,1,0,18.75Z" transform="translate(-200.02 -200.09)"/><path class="cls-3" d="M527.88,800.25H497.57a9.38,9.38,0,1,1,0-18.75h25l25.4-42.72a9.37,9.37,0,0,1,16.12,9.57l-28.13,47.32A9.36,9.36,0,0,1,527.88,800.25Z" transform="translate(-200.02 -200.09)"/><path class="cls-3" d="M601.29,495.11a9.4,9.4,0,0,1-9.21-7.65c-4.49-24-19.87-45.35-42.18-58.5a9.37,9.37,0,0,1,9.52-16.15c27,15.89,45.6,41.85,51.1,71.2A9.38,9.38,0,0,1,603,495,9.28,9.28,0,0,1,601.29,495.11Z" transform="translate(-200.02 -200.09)"/><path class="cls-3" d="M565.38,677.94a9.72,9.72,0,0,1-1.84-.18,9.38,9.38,0,0,1-7.36-11c6.33-31.74,16.55-44.28,29.48-60.17,3.71-4.54,7.7-9.44,12-15.3,22-30.14,35.42-56,34.62-91.48-1.55-69.42-60-123-132.37-121.84-5.2.34-9.44-4.05-9.51-9.23a9.37,9.37,0,0,1,9.23-9.52c83-1.11,149.61,60.32,151.4,140.17.91,40.66-14.62,70.56-38.21,102.94-4.51,6.17-8.7,11.33-12.6,16.11-12.17,14.94-20.21,24.81-25.63,52A9.39,9.39,0,0,1,565.38,677.94Z" transform="translate(-200.02 -200.09)"/><path class="cls-3" d="M565.38,678.27h0l-131.25-.33a9.38,9.38,0,0,1,0-18.75h0l131.25.33a9.38,9.38,0,0,1,0,18.75Z" transform="translate(-200.02 -200.09)"/><path class="cls-3" d="M565.38,715.44H434.13a9.38,9.38,0,1,1,0-18.75H565.38a9.38,9.38,0,0,1,0,18.75Z" transform="translate(-200.02 -200.09)"/><path class="cls-3" d="M565.38,752.94H434.13a9.38,9.38,0,1,1,0-18.75H565.38a9.38,9.38,0,0,1,0,18.75Z" transform="translate(-200.02 -200.09)"/><path class="cls-3" d="M565.38,752.94a9.37,9.37,0,0,1-9.38-9.38v-75a9.38,9.38,0,0,1,18.75,0v75A9.37,9.37,0,0,1,565.38,752.94Z" transform="translate(-200.02 -200.09)"/><path class="cls-3" d="M501.93,800.25h-30.3a9.39,9.39,0,0,1-8.07-4.58l-11.4-19.19a9.38,9.38,0,1,1,16.12-9.58L477,781.5h25a9.38,9.38,0,1,1,0,18.75Z" transform="translate(-200.02 -200.09)"/></g></svg>