<svg id="Layer_1" data-name="Layer 1" xmlns="http://www.w3.org/2000/svg" viewBox="0 0 451.32 581.54"><defs><style>.cls-1{fill:#434343;}</style></defs><path class="cls-1" d="M499.75,731.53l-6.61-4.25C465.82,709.7,329.51,617.8,329.51,534V318.82L340,317.29c39.64-5.81,98.73-17.55,155.07-40.54l4.62-1.88,4.62,1.88c56.37,23,115.55,34.74,155.27,40.54L670,318.82V534c0,83.85-136.31,175.75-163.63,193.33ZM354,339.87V534c0,50.14,72.17,119.8,145.8,168.46,73.63-48.66,145.8-118.32,145.8-168.46V339.88c-39.44-6.29-93.47-17.85-145.9-38.64C447.26,322,393.32,333.58,354,339.87Z" transform="translate(-274.09 -209.07)"/><path class="cls-1" d="M499.75,790.61l-5.89-3.23A722.13,722.13,0,0,1,385.09,711c-31.8-27.19-57.21-54.59-75.52-81.43C286,595.08,274.09,561.24,274.09,529V263.29l11.53-.65c1.15-.07,116-7.06,208.79-51.08l5.24-2.49,5.24,2.49c92.89,44.08,207.84,51,209,51.08l11.53.65V529c0,32.23-11.94,66.07-35.48,100.57-18.31,26.84-43.72,54.24-75.52,81.43a722.13,722.13,0,0,1-108.77,76.37ZM298.53,286.15V529c0,109.87,167.42,213.73,201.22,233.56C533.55,742.74,701,638.88,701,529V286.15C669.33,283.3,579,272.39,499.65,236.08,420.27,272.38,330.14,283.3,298.53,286.15Z" transform="translate(-274.09 -209.07)"/><polygon class="cls-1" points="212.55 372.9 127.95 288.34 158.96 257.34 212.55 310.89 313.64 208.58 344.64 239.59 212.55 372.9"/></svg>