<svg id="Layer_1" data-name="Layer 1" xmlns="http://www.w3.org/2000/svg" viewBox="0 0 512.08 328.52"><path d="M755.62,368.15a11.27,11.27,0,0,0-4.34-7.67l-6-4.56-5.43-13.17a11.25,11.25,0,0,0-11.55-6.87l-11.28,1.2a11.2,11.2,0,0,0-9.83,9.23l-4.36,25.39-26.18,10.13a11.15,11.15,0,0,0-6.57,6.82l-5.87,17.18-12.31,9-40-35.23a7.61,7.61,0,0,0-4.14-1.85l-62.22-7.43c-.33-.11-.66-.2-1-.28l-12.42-2.84-11.35-6.9a11.18,11.18,0,0,0-5.82-1.64h0l-90.33,1-27.54.11a7.67,7.67,0,0,0-7.69,6.62,7.47,7.47,0,0,0,7.43,8.27l20.24-.08V480.63H263.3l-4.09-44.35,11.21-51.65,3.07.05a11.79,11.79,0,0,0,11.59-9.05l76.08-.14a7.45,7.45,0,0,0,7-9.86,7.36,7.36,0,0,0-7.05-5H361l-80.14.15a11.66,11.66,0,0,0-8.16,3.3,10.12,10.12,0,0,0-2.66,4.55l-3.37,1h.06a11.17,11.17,0,0,0-10.87,8.77l-12,55.4a11.33,11.33,0,0,0-.21,3.39l4.5,48.84a7.75,7.75,0,0,0-.34,2.27,7.51,7.51,0,0,0,.88,3.53l1.87,20.37a11.23,11.23,0,0,0,2.31,5.84l43.72,56a11.28,11.28,0,0,0,3.3,2.82,7.79,7.79,0,0,0,2.9,1.22l55.34,19a11.07,11.07,0,0,0,3.61.6h-.06l42.54-.07,31.36,31.25a11.15,11.15,0,0,0,13.87,1.54l6.61-4.15,35.11,34.88a11.22,11.22,0,0,0,7.9,3.25q.4,0,.81,0l6.81-.49a11.52,11.52,0,0,0,6.34-2.34,11.22,11.22,0,0,0,4.29-9.66l-1.05-14.55,25.34-21.33,51.87-12.36,48.44-1.43L650,618a11.14,11.14,0,0,0,2.57,3.33c1.92,1.69,9,7.9,15.57,13.68,15.13,13.21,15.13,13.22,18.64,13,1.4-.1,1.69-.12,11.07-4a11.22,11.22,0,0,0,6.48-13.35l-8.39-30.12a11,11,0,0,0-.94-2.34l-17-31.31v0l-.6-1.11,37.28-57.53A11.18,11.18,0,0,0,716,499l-4.32-15.16,3.8-42.43,16.43-10.52a11.27,11.27,0,0,0,5.15-9.88l-1-24.14,17-20.25A11.28,11.28,0,0,0,755.62,368.15ZM432.1,374.63l82.46-.32,11,6.7a11.23,11.23,0,0,0,3.37,1.37l12.78,2.92a7.51,7.51,0,0,0,2,.53l61.36,7.33,5.08,4.47H432.1Zm0,80H697.64l-2.32,26H432.1Zm72.83,172.43a11.22,11.22,0,0,0-4,9.36l.91,12.53-1.14.08-29.58-29.4h42.59Zm176-21.62,7.26,26.07-1,.42c-4.45-3.79-13.4-11.6-24.2-21.14l-8.81-17.37a11.19,11.19,0,0,0-10.28-6.1l-51.22,1.51a10.78,10.78,0,0,0-2.26.3l-53,12.62a11.2,11.2,0,0,0-4.6,2.32l-.67.56H432.84l-18.78-18.71a11.2,11.2,0,0,0-7.95-3.29h-1.26l-41.41.07-11.86-4.07H666.35ZM662.1,560.63h0l-.24.38a7.54,7.54,0,0,0-.78,1.62H308.49l-20.3-26H677.65Zm24.79-39H275.71l-9.56-12.24-1.26-13.76H698l1.75,6.13Zm35.27-133a11.2,11.2,0,0,0-2.6,7.6l.92,23.28-16.05,10.28a11.22,11.22,0,0,0-5.13,8.43l0,.44H432.1v-26H625.2l20.34,17.9a7.6,7.6,0,0,0,9.51.44l18.48-13.46c.19-.15.38-.3.56-.46a11.11,11.11,0,0,0,3.16-4.74l5.66-16.55,26.45-10.23a11.17,11.17,0,0,0,7-8.51l4.21-24.51,5.12-.55,4.65,11.29a11.27,11.27,0,0,0,3.56,4.63l3.43,2.63Z" transform="translate(-243.61 -335.82)"/><path d="M296.75,402.65c6,6.43,1.56,14-4.65,14h-1v1c0,6.22-7.56,10.67-14,4.66a3.24,3.24,0,0,1-1-2.38v-3.28h-1c-6.22,0-10.67-7.55-4.66-14a3.27,3.27,0,0,1,2.38-1h3.28v-1c0-6.21,7.55-10.66,14-4.66a3.31,3.31,0,0,1,1,2.39v3.27h3.27A3.27,3.27,0,0,1,296.75,402.65Z" transform="translate(-243.61 -335.82)"/><path d="M333.75,402.65c6,6.43,1.56,14-4.65,14h-1v1c0,6.22-7.56,10.67-14,4.66a3.24,3.24,0,0,1-1-2.38v-3.28h-1c-6.22,0-10.67-7.55-4.66-14a3.27,3.27,0,0,1,2.38-1h3.28v-1c0-6.21,7.55-10.66,14-4.66a3.31,3.31,0,0,1,1,2.39v3.27h3.27A3.27,3.27,0,0,1,333.75,402.65Z" transform="translate(-243.61 -335.82)"/><path d="M371.75,402.65c6,6.43,1.56,14-4.65,14h-1v1c0,6.22-7.56,10.67-14,4.66a3.24,3.24,0,0,1-1-2.38v-3.28h-1c-6.22,0-10.67-7.55-4.66-14a3.27,3.27,0,0,1,2.38-1h3.28v-1c0-6.21,7.55-10.66,14-4.66a3.31,3.31,0,0,1,1,2.39v3.27h3.27A3.27,3.27,0,0,1,371.75,402.65Z" transform="translate(-243.61 -335.82)"/><path d="M409.75,402.65c6,6.43,1.56,14-4.65,14h-1v1c0,6.22-7.56,10.67-14,4.66a3.24,3.24,0,0,1-1-2.38v-3.28h-1c-6.22,0-10.67-7.55-4.66-14a3.27,3.27,0,0,1,2.38-1h3.28v-1c0-6.21,7.55-10.66,14-4.66a3.31,3.31,0,0,1,1,2.39v3.27h3.27A3.27,3.27,0,0,1,409.75,402.65Z" transform="translate(-243.61 -335.82)"/><path d="M296.75,443.65c6,6.43,1.56,14-4.65,14h-1v1c0,6.22-7.56,10.67-14,4.66a3.24,3.24,0,0,1-1-2.38v-3.28h-1c-6.22,0-10.67-7.55-4.66-14a3.27,3.27,0,0,1,2.38-1h3.28v-1c0-6.21,7.55-10.66,14-4.66a3.31,3.31,0,0,1,1,2.39v3.27h3.27A3.27,3.27,0,0,1,296.75,443.65Z" transform="translate(-243.61 -335.82)"/><path d="M333.75,443.65c6,6.43,1.56,14-4.65,14h-1v1c0,6.22-7.56,10.67-14,4.66a3.24,3.24,0,0,1-1-2.38v-3.28h-1c-6.22,0-10.67-7.55-4.66-14a3.27,3.27,0,0,1,2.38-1h3.28v-1c0-6.21,7.55-10.66,14-4.66a3.31,3.31,0,0,1,1,2.39v3.27h3.27A3.27,3.27,0,0,1,333.75,443.65Z" transform="translate(-243.61 -335.82)"/><path d="M371.75,443.65c6,6.43,1.56,14-4.65,14h-1v1c0,6.22-7.56,10.67-14,4.66a3.24,3.24,0,0,1-1-2.38v-3.28h-1c-6.22,0-10.67-7.55-4.66-14a3.27,3.27,0,0,1,2.38-1h3.28v-1c0-6.21,7.55-10.66,14-4.66a3.31,3.31,0,0,1,1,2.39v3.27h3.27A3.27,3.27,0,0,1,371.75,443.65Z" transform="translate(-243.61 -335.82)"/><path d="M409.75,443.65c6,6.43,1.56,14-4.65,14h-1v1c0,6.22-7.56,10.67-14,4.66a3.24,3.24,0,0,1-1-2.38v-3.28h-1c-6.22,0-10.67-7.55-4.66-14a3.27,3.27,0,0,1,2.38-1h3.28v-1c0-6.21,7.55-10.66,14-4.66a3.31,3.31,0,0,1,1,2.39v3.27h3.27A3.27,3.27,0,0,1,409.75,443.65Z" transform="translate(-243.61 -335.82)"/></svg>