<svg id="Layer_1" data-name="Layer 1" xmlns="http://www.w3.org/2000/svg" viewBox="0 0 500 485.69"><defs><style>.cls-1{fill:#333;}</style></defs><path class="cls-1" d="M560.51,498a9.34,9.34,0,0,1-6.61-15.94l33.66-33.71a9.34,9.34,0,0,1,10.91-1.69,95.83,95.83,0,0,0,18.58,7.2A90.67,90.67,0,0,0,727.19,339.93L679.7,387.45a9.33,9.33,0,0,1-6.6,2.74h0a9.36,9.36,0,0,1-6.61-2.74l-47.21-47.21a9.34,9.34,0,0,1,0-13.22l47.51-47.47a90.66,90.66,0,0,0-113.92,110.2,95.45,95.45,0,0,0,7.18,18.51,9.35,9.35,0,0,1-1.68,10.9L524.7,452.87a9.34,9.34,0,0,1-13.22-13.2l29-29.05a117,117,0,0,1-5.66-16,109.36,109.36,0,0,1,152.71-127,9.34,9.34,0,0,1,2.59,15l-51,51,34,34,51-51a9.35,9.35,0,0,1,15,2.58,109.36,109.36,0,0,1-127,152.73,117.69,117.69,0,0,1-16-5.66l-29,29A9.31,9.31,0,0,1,560.51,498Z" transform="translate(-249.74 -257)"/><path class="cls-1" d="M308.37,740.46A32.63,32.63,0,0,1,285.3,731l-9.51-9.52a32.71,32.71,0,0,1,0-46.13L429,522.17a9.34,9.34,0,1,1,13.21,13.21L289,688.52a14,14,0,0,0,0,19.73l9.49,9.48a14,14,0,0,0,19.71,0L471.4,564.59a9.34,9.34,0,1,1,13.21,13.21L331.42,730.94A32.49,32.49,0,0,1,308.37,740.46Z" transform="translate(-249.74 -257)"/><path class="cls-1" d="M678.13,742.68a41.81,41.81,0,0,1-29.65-12.26L575.75,657.7l-32.92,5.74a9.35,9.35,0,0,1-10.11-5.35l-19.34-42.68a9.35,9.35,0,0,1,1.9-10.46L594.19,526a9.33,9.33,0,0,1,10.46-1.9l42.68,19.33a9.35,9.35,0,0,1,5.35,10.11L647,586.47,719.7,659.2a41.93,41.93,0,0,1,0,59.3l-11.92,11.92A41.81,41.81,0,0,1,678.13,742.68Zm-99.2-104.36a9.32,9.32,0,0,1,6.6,2.74l76.16,76.15a23.29,23.29,0,0,0,32.88,0l11.92-11.92a23.27,23.27,0,0,0,0-32.88l-76.15-76.16a9.34,9.34,0,0,1-2.6-8.2l5.3-30.54-30.21-13.69-69.77,69.77,13.69,30.2,30.57-5.33A9.82,9.82,0,0,1,578.93,638.32Z" transform="translate(-249.74 -257)"/><path class="cls-1" d="M544.42,598.37a9.36,9.36,0,0,1-6.61-2.74L351.13,409l-31-4.43a9.33,9.33,0,0,1-6.42-4l-62.4-92.38a9.35,9.35,0,0,1,1.13-11.84l33.06-33.05a9.33,9.33,0,0,1,11.83-1.14l92.38,62.4a9.38,9.38,0,0,1,4,6.41l4.45,30.93L584.91,548.53a9.34,9.34,0,1,1-13.21,13.21L382.82,372.86a9.35,9.35,0,0,1-2.64-5.28l-4.31-29.91L293.3,281.9l-22.16,22.16,55.77,82.56,29.94,4.27a9.36,9.36,0,0,1,5.29,2.65L551,582.42a9.35,9.35,0,0,1-6.6,16Z" transform="translate(-249.74 -257)"/></svg>